<?xml version="1.0" encoding="UTF-8" standalone="no"?>
<svg
   version="1.0"
   width="529pt"
   height="528pt"
   viewBox="0 0 529 528"
   preserveAspectRatio="xMidYMid"
   id="svg44"
   sodipodi:docname="light-saber.svg"
   inkscape:version="1.2 (dc2aedaf03, 2022-05-15)"
   xmlns:inkscape="http://www.inkscape.org/namespaces/inkscape"
   xmlns:sodipodi="http://sodipodi.sourceforge.net/DTD/sodipodi-0.dtd"
   xmlns="http://www.w3.org/2000/svg"
   xmlns:svg="http://www.w3.org/2000/svg">
  <defs
     id="defs48" />
  <sodipodi:namedview
     id="namedview46"
     pagecolor="#ffffff"
     bordercolor="#000000"
     borderopacity="0.25"
     inkscape:showpageshadow="2"
     inkscape:pageopacity="0.0"
     inkscape:pagecheckerboard="0"
     inkscape:deskcolor="#d1d1d1"
     inkscape:document-units="pt"
     showgrid="false"
     inkscape:zoom="1.5043945"
     inkscape:cx="341.00097"
     inkscape:cy="331.36254"
     inkscape:window-width="2560"
     inkscape:window-height="1377"
     inkscape:window-x="-8"
     inkscape:window-y="-8"
     inkscape:window-maximized="1"
     inkscape:current-layer="svg44" />
  <g
     transform="matrix(0.1,0,0,-0.1,8.5,520)"
     fill="#000000"
     stroke="none"
     id="g42"
     style="fill:#964a41;fill-opacity:1">
    <path
       d="M 122,4997 0,4875 v -85 -86 l 68,-67 68,-67 52,53 52,53 -45,44 c -65,63 -62,79 33,173 55,54 85,77 102,77 20,0 246,-221 1075,-1050 l 1050,-1050 -103,-102 -102,-103 -953,953 -952,952 -48,-48 c -26,-26 -47,-52 -47,-57 0,-6 426,-436 947,-957 l 948,-948 -252,-252 -252,-252 -36,34 -35,34 -155,-154 -155,-155 42,-42 42,-43 -39,-40 -39,-40 -43,42 -43,42 -123,-122 -122,-122 -68,67 -67,68 -192,-193 -193,-192 68,-67 67,-68 L 323,878 96,651 123,622 150,594 75,520 0,446 V 380 315 L 158,157 315,0 h 65 66 l 74,75 74,75 28,-27 29,-27 342,342 342,342 -53,52 -52,53 L 940,595 650,305 478,478 305,650 l 438,437 437,438 172,-172 173,-173 -95,-95 -95,-95 53,-52 52,-53 147,147 148,148 -43,43 -42,43 40,39 40,39 43,-42 42,-42 155,155 154,155 -34,35 -34,35 107,108 c 59,59 107,112 107,117 0,5 -21,31 -47,57 l -47,48 -113,-112 -113,-113 -100,100 -100,100 252,252 253,253 100,-100 100,-100 -88,-88 -87,-87 52,-53 53,-52 87,87 88,88 252,-252 252,-252 -34,-36 -34,-35 154,-155 155,-155 42,42 43,42 40,-39 40,-39 -42,-43 -42,-43 122,-123 122,-122 -67,-68 -68,-67 193,-192 192,-193 67,68 68,67 227,-227 227,-227 29,27 28,27 74,-75 74,-75 h 66 65 l 158,158 157,157 v 65 66 l -75,74 -75,74 27,28 27,29 -342,342 -342,342 -52,-53 -53,-52 290,-290 290,-290 -173,-172 -172,-173 -437,438 -438,437 172,172 173,173 95,-95 95,-95 52,53 53,52 -147,147 -148,148 -43,-43 -43,-42 -39,40 -39,40 42,43 42,42 -155,155 -155,154 -35,-34 -35,-34 -108,107 c -59,59 -112,107 -117,107 -5,0 -31,-21 -57,-47 l -48,-47 112,-113 113,-113 -100,-100 -100,-100 -253,253 -252,252 100,100 100,100 88,-88 87,-87 53,52 52,53 -87,87 -88,88 1073,1073 1072,1072 v 85 85 l -123,123 -122,122 h -85 -86 l -67,-68 -67,-68 53,-52 53,-52 44,45 c 63,65 79,62 173,-33 54,-55 77,-85 77,-102 0,-20 -221,-246 -1050,-1075 l -1050,-1050 -102,103 -103,102 953,953 952,952 -48,48 c -26,26 -52,47 -57,47 -6,0 -436,-426 -957,-947 L 2560,2975 1487,4048 415,5120 h -85 -85 z m 2543,-2537 -100,-100 -100,100 -100,100 100,100 100,100 100,-100 100,-100 z m -920,-720 169,-170 -44,-45 c -24,-25 -49,-45 -55,-45 -13,0 -335,322 -335,335 0,10 80,95 90,95 3,0 82,-76 175,-170 z m 1853,127 c 23,-23 42,-47 42,-52 0,-13 -322,-335 -335,-335 -6,0 -31,20 -55,45 l -44,45 169,170 c 93,94 172,170 175,170 3,0 25,-19 48,-43 z m -2018,-452 -40,-40 -82,82 -82,83 39,40 39,40 83,-82 83,-83 z m 2083,43 -83,-82 -40,39 -40,39 82,83 83,83 40,-40 40,-40 z M 818,1389 c 1,-8 -33,-50 -77,-93 -70,-69 -82,-78 -96,-66 -14,12 -7,23 67,97 80,80 100,92 106,62 z M 3825,740 c 71,-71 78,-82 64,-95 -13,-13 -24,-6 -98,69 -76,77 -92,106 -58,106 7,0 48,-36 92,-80 z M 372,373 c 60,-59 108,-112 108,-118 0,-6 -23,-33 -50,-60 l -50,-50 -117,118 -118,117 50,50 c 27,27 54,50 59,50 6,0 59,-48 118,-107 z m 4553,57 50,-50 -118,-117 -117,-118 -50,50 c -27,27 -50,54 -50,59 0,14 212,226 225,226 6,0 33,-23 60,-50 z"
       id="path2"
       style="fill:#964a41;fill-opacity:1" />
    <path
       d="m 712,4407 -52,-52 580,-580 580,-580 52,53 53,52 -580,580 -580,580 z"
       id="path4"
       style="fill:#964a41;fill-opacity:1" />
    <path
       d="m 4112,4217 -52,-53 53,-52 53,-52 52,53 52,53 -53,52 -53,52 z"
       id="path6"
       style="fill:#964a41;fill-opacity:1" />
    <path
       d="m 3935,4040 -50,-50 53,-53 52,-52 52,52 53,53 -50,50 c -27,27 -52,50 -55,50 -3,0 -28,-23 -55,-50 z"
       id="path8"
       style="fill:#964a41;fill-opacity:1" />
    <path
       d="m 3420,3525 -395,-395 53,-52 52,-53 395,395 395,395 -53,53 -52,52 z"
       id="path10"
       style="fill:#964a41;fill-opacity:1" />
    <path
       d="m 1992,3837 -52,-53 53,-52 53,-52 52,53 52,53 -53,52 -53,52 z"
       id="path12"
       style="fill:#964a41;fill-opacity:1" />
    <path
       d="m 2165,3660 -49,-50 49,-50 c 27,-27 54,-50 60,-50 6,0 32,22 58,48 l 47,48 -53,52 c -29,29 -55,52 -58,52 -2,0 -27,-22 -54,-50 z"
       id="path14"
       style="fill:#964a41;fill-opacity:1" />
    <path
       d="m 2345,3480 -50,-50 53,-53 52,-52 52,52 53,53 -50,50 c -27,27 -52,50 -55,50 -3,0 -28,-23 -55,-50 z"
       id="path16"
       style="fill:#964a41;fill-opacity:1" />
    <path
       d="m 1942,3177 -52,-53 53,-52 53,-52 52,53 52,53 -53,52 -53,52 z"
       id="path18"
       style="fill:#964a41;fill-opacity:1" />
    <path
       d="m 3752,3157 c -23,-23 -42,-47 -42,-53 0,-5 23,-32 50,-59 l 50,-50 52,53 53,52 -50,50 c -27,27 -54,50 -60,50 -6,0 -30,-19 -53,-43 z"
       id="path20"
       style="fill:#964a41;fill-opacity:1" />
    <path
       d="m 2115,3000 -49,-50 49,-50 c 27,-27 54,-50 59,-50 14,0 96,81 96,95 0,10 -91,105 -101,105 -2,0 -27,-22 -54,-50 z"
       id="path22"
       style="fill:#964a41;fill-opacity:1" />
    <path
       d="m 3577,2982 c -26,-26 -47,-52 -47,-58 0,-5 23,-32 50,-59 l 50,-49 50,49 c 28,27 50,54 50,60 0,10 -91,105 -101,105 -2,0 -26,-22 -52,-48 z"
       id="path24"
       style="fill:#964a41;fill-opacity:1" />
    <path
       d="m 3402,2797 -52,-53 53,-52 53,-52 52,53 52,53 -53,52 -53,52 z"
       id="path26"
       style="fill:#964a41;fill-opacity:1" />
    <path
       d="m 3225,2620 -50,-50 53,-53 52,-52 52,52 53,53 -50,50 c -27,27 -52,50 -55,50 -3,0 -28,-23 -55,-50 z"
       id="path28"
       style="fill:#964a41;fill-opacity:1" />
    <path
       d="m 1105,1300 -50,-50 53,-53 52,-52 52,52 53,53 -50,50 c -27,27 -52,50 -55,50 -3,0 -28,-23 -55,-50 z"
       id="path30"
       style="fill:#964a41;fill-opacity:1" />
    <path
       d="m 932,1127 -52,-53 53,-52 53,-52 52,53 52,53 -53,52 -53,52 z"
       id="path32"
       style="fill:#964a41;fill-opacity:1" />
    <path
       d="m 4032,997 -52,-53 53,-52 53,-52 52,53 52,53 -53,52 -53,52 z"
       id="path34"
       style="fill:#964a41;fill-opacity:1" />
    <path
       d="m 637,832 -167,-167 53,-53 52,-52 168,168 167,167 -53,53 -52,52 z"
       id="path36"
       style="fill:#964a41;fill-opacity:1" />
    <path
       d="m 4205,820 -49,-50 54,-55 54,-55 48,47 c 26,26 48,52 48,58 0,10 -91,105 -101,105 -2,0 -27,-23 -54,-50 z"
       id="path38"
       style="fill:#964a41;fill-opacity:1" />
    <path
       d="m 4385,640 -50,-50 53,-53 52,-52 52,52 53,53 -50,50 c -27,27 -52,50 -55,50 -3,0 -28,-23 -55,-50 z"
       id="path40"
       style="fill:#964a41;fill-opacity:1" />
  </g>
</svg>
